<?xml version="1.0" encoding="UTF-8"?><svg id="Camada_2" xmlns="http://www.w3.org/2000/svg" viewBox="0 0 353.93 77.93"><defs><style>.cls-1,.cls-2{fill:#4d4d4d;}.cls-3{fill:#ffc61a;}.cls-2{font-family:Montserrat-Regular, Montserrat;font-size:42.55px;}.cls-4{letter-spacing:0em;}</style></defs><g id="Camada_1-2"><g><path class="cls-3" d="M159.86,66.73L129.18,0h-15.44l30.68,66.73h15.44Z"/><path class="cls-1" d="M167.66,66.73L138.87,0h16.68l25.17,59.11h-9.82L196.45,0h15.35l-28.89,66.73h-15.25Z"/><path class="cls-1" d="M219.6,66.73V0h15.44V66.73h-15.44Z"/><path class="cls-3" d="M242.72,66.74v-15.24h15.44v15.24h-15.44Z"/><path class="cls-1" d="M107.18,0l28.89,66.73h-15.35L95.17,7.63h9.82l-25.17,59.11h-16.68L91.93,0h15.25Z"/><path class="cls-1" d="M0,66.73V0H30.32C37.56,0,43.95,1.38,49.48,4.15c5.53,2.76,9.85,6.63,12.97,11.58,3.11,4.96,4.67,10.84,4.67,17.64s-1.56,12.6-4.67,17.59c-3.11,4.99-7.44,8.87-12.97,11.63-5.53,2.76-11.92,4.15-19.16,4.15H0Zm15.44-12.68h14.11c4.45,0,8.31-.84,11.58-2.53,3.27-1.68,5.82-4.08,7.63-7.2,1.81-3.11,2.72-6.77,2.72-10.96s-.91-7.93-2.72-11.01c-1.81-3.08-4.35-5.47-7.63-7.15-3.27-1.68-7.13-2.53-11.58-2.53H15.44V54.05Z"/><text class="cls-2" transform="translate(261.06 66.91)"><tspan x="0" y="0">D</tspan><tspan class="cls-4" x="35.14" y="0">E</tspan><tspan x="63.18" y="0">V</tspan></text></g></g></svg>